<?xml version="1.0" standalone="no"?>
<!DOCTYPE svg PUBLIC "-//W3C//DTD SVG 20010904//EN"
 "http://www.w3.org/TR/2001/REC-SVG-20010904/DTD/svg10.dtd">
<svg version="1.0" xmlns="http://www.w3.org/2000/svg"
 width="280.000000pt" height="280.000000pt" viewBox="0 0 280.000000 280.000000"
 preserveAspectRatio="xMidYMid meet">
<metadata>
Created by potrace 1.11, written by Peter Selinger 2001-2013
</metadata>
<g transform="translate(0.000000,280.000000) scale(0.100000,-0.100000)"
fill="#000000" stroke="none">
<path d="M400 2205 c-14 -7 -68 -28 -120 -46 -156 -52 -183 -70 -200 -129 -11
-40 7 -90 41 -114 23 -15 25 -15 41 6 16 22 16 24 -4 46 -18 18 -20 27 -12 49
11 33 51 57 154 92 91 32 92 46 -3 -119 -34 -58 -69 -122 -79 -142 -39 -81
-11 -154 57 -145 18 3 38 8 44 11 6 4 11 2 11 -3 0 -6 -28 -24 -62 -39 -70
-32 -85 -46 -98 -91 -7 -27 -5 -33 17 -51 51 -40 105 -14 156 74 27 46 47 67
70 77 18 7 54 28 82 47 33 24 50 31 53 22 20 -58 104 -68 170 -20 23 16 56 32
73 35 18 3 36 8 41 11 4 3 8 -6 8 -19 0 -30 29 -57 61 -57 14 0 41 8 61 19 37
18 38 18 55 -1 14 -16 26 -18 58 -14 50 7 52 7 96 2 l36 -5 54 97 c54 97 144
202 173 202 25 0 20 -14 -40 -118 -31 -53 -56 -109 -56 -126 -1 -41 26 -59 77
-51 22 3 45 6 50 5 6 0 26 -1 44 -3 34 -2 36 0 91 96 72 125 157 215 180 190
5 -4 -18 -55 -51 -113 -32 -58 -59 -112 -59 -120 0 -9 7 -26 16 -38 18 -27 61
-29 107 -6 38 19 127 103 127 120 0 31 -31 18 -81 -32 -34 -34 -62 -54 -76
-54 -13 0 -23 3 -23 8 0 4 27 54 61 112 64 111 74 154 44 176 -19 14 -73 10
-90 -7 -12 -12 -28 -12 -20 1 4 6 -9 10 -32 10 -34 0 -41 -4 -58 -37 -83 -157
-172 -263 -220 -263 l-25 0 19 38 c10 20 40 73 65 117 51 90 55 106 26 135
-21 21 -50 21 -89 0 -15 -8 -21 -8 -21 0 0 7 -15 10 -36 8 -35 -3 -39 -8 -90
-98 -58 -100 -149 -200 -184 -200 -27 0 -25 18 5 62 14 20 25 39 25 42 0 3 16
32 35 65 36 61 40 72 28 70 -21 -3 -33 2 -33 15 0 27 -52 58 -88 53 -52 -9
-87 -42 -136 -126 -45 -78 -79 -113 -123 -124 -13 -3 -23 -4 -23 -2 0 1 18 34
40 71 54 93 52 146 -7 177 -33 18 -98 5 -132 -26 -12 -12 -43 -57 -67 -99 -28
-47 -70 -100 -110 -137 -58 -55 -92 -76 -82 -53 2 7 170 296 249 430 14 24 14
28 1 33 -44 16 -60 -1 -156 -170 -52 -91 -108 -184 -124 -207 -54 -74 -132
-90 -118 -24 2 15 49 102 102 194 95 165 97 169 81 194 -19 33 -26 35 -57 17z
m394 -211 c3 -9 -3 -35 -15 -58 -27 -54 -40 -70 -66 -85 -17 -9 -23 -21 -23
-47 0 -27 -5 -37 -25 -46 -21 -9 -29 -9 -42 5 -15 14 -12 23 37 109 29 51 62
103 73 116 24 26 52 29 61 6z m303 -11 c9 -22 -52 -134 -103 -189 -37 -41 -84
-60 -84 -34 0 18 110 204 132 223 25 22 47 22 55 0z m-824 -375 c-20 -35 -43
-48 -43 -25 0 13 44 57 57 57 3 0 -3 -14 -14 -32z"/>
<path d="M2330 2053 c-8 -3 -26 -15 -39 -27 l-24 -21 12 23 c11 21 10 22 -27
22 l-39 0 -96 -166 c-53 -92 -95 -170 -92 -173 2 -4 19 -5 38 -3 30 3 37 11
78 84 47 86 155 208 183 208 23 0 15 -22 -38 -113 -23 -40 -56 -97 -73 -127
l-32 -55 40 0 c39 -1 40 0 87 84 49 88 157 211 186 211 24 0 21 -10 -32 -102
-66 -116 -73 -134 -63 -162 25 -64 112 -43 201 47 46 46 49 52 35 66 -14 15
-19 13 -46 -18 -35 -41 -88 -81 -106 -81 -23 0 -14 26 47 133 63 109 70 135
44 161 -29 29 -85 15 -128 -31 -25 -26 -26 -27 -26 -6 0 41 -43 63 -90 46z"/>
<path d="M2640 1761 c-14 -27 -3 -50 27 -57 25 -7 46 12 48 41 3 35 -57 48
-75 16z"/>
<path d="M1105 1393 c-72 -8 -75 -10 -75 -60 0 -60 41 -148 78 -166 34 -18
141 -13 180 7 28 15 44 42 56 99 12 54 61 42 72 -18 6 -36 17 -56 43 -79 18
-16 37 -20 106 -20 96 0 112 9 148 79 21 41 35 144 20 146 -4 0 -18 2 -30 5
-50 9 -144 11 -199 3 -32 -5 -78 -11 -101 -15 -23 -3 -68 0 -100 7 -59 12
-144 17 -198 12z m55 -48 c0 -5 5 -3 10 5 9 13 12 13 21 -3 6 -9 15 -14 21
-11 7 5 9 1 5 -9 -3 -10 -2 -17 4 -17 6 0 9 8 7 18 -2 9 -10 16 -16 15 -7 -2
-12 2 -12 7 0 13 82 1 91 -12 3 -6 10 -10 15 -11 14 -3 7 -69 -8 -78 -7 -4 -9
-11 -6 -15 8 -8 -14 -34 -24 -27 -5 2 -8 -1 -8 -7 0 -6 -4 -8 -10 -5 -5 3 -10
1 -10 -5 0 -6 -4 -9 -10 -5 -5 3 -7 12 -4 19 3 8 1 17 -5 21 -7 4 -8 0 -4 -11
4 -12 3 -15 -5 -10 -8 4 -10 2 -6 -8 4 -12 -1 -14 -26 -11 -18 3 -39 10 -48
17 -13 11 -14 11 -7 -2 4 -8 -2 -5 -14 8 -12 12 -20 26 -16 31 3 5 1 11 -4 13
-19 6 -21 57 -3 68 12 6 13 9 3 10 -11 0 -11 3 -1 15 14 17 70 17 70 0z m480
3 c0 -5 -4 -7 -9 -3 -6 3 -15 -5 -21 -17 -11 -22 -10 -22 4 -4 9 11 16 16 16
10 0 -5 6 -2 13 7 19 25 42 2 44 -43 1 -29 -3 -38 -15 -39 -14 0 -13 -2 3 -9
11 -5 14 -9 7 -9 -7 -1 -11 -5 -8 -10 8 -12 -31 -44 -43 -36 -6 3 -11 2 -11
-3 0 -20 -105 -7 -138 17 -30 21 -46 60 -19 46 6 -4 4 0 -6 8 -9 8 -16 24 -14
35 4 25 26 53 37 47 5 -3 11 -2 14 3 7 11 146 11 146 0z"/>
<path d="M1110 1340 c0 -5 5 -10 10 -10 6 0 10 5 10 10 0 6 -4 10 -10 10 -5 0
-10 -4 -10 -10z"/>
<path d="M1250 1325 c0 -8 4 -15 10 -15 5 0 7 7 4 15 -4 8 -8 15 -10 15 -2 0
-4 -7 -4 -15z"/>
<path d="M1140 1325 c0 -8 29 -12 39 -5 9 5 4 8 -13 8 -14 0 -26 -2 -26 -3z"/>
<path d="M1290 1320 c-9 -6 -10 -10 -3 -10 6 0 15 5 18 10 8 12 4 12 -15 0z"/>
<path d="M1139 1308 c-8 -27 -5 -36 9 -30 10 4 12 7 4 10 -7 2 -10 8 -6 13 3
5 3 9 0 9 -3 0 -6 -1 -7 -2z"/>
<path d="M1177 1303 c-2 -5 -3 -16 -1 -26 2 -13 -2 -17 -12 -13 -8 3 -14 1
-14 -5 0 -6 8 -9 18 -7 11 2 17 12 16 26 -1 16 3 22 13 18 8 -3 11 -1 8 4 -7
12 -22 13 -28 3z"/>
<path d="M1228 1293 c6 -2 18 -2 25 0 6 3 1 5 -13 5 -14 0 -19 -2 -12 -5z"/>
<path d="M1085 1280 c3 -5 8 -10 11 -10 2 0 4 5 4 10 0 6 -5 10 -11 10 -5 0
-7 -4 -4 -10z"/>
<path d="M1260 1280 c-18 -12 -2 -12 25 0 13 6 15 9 5 9 -8 0 -22 -4 -30 -9z"/>
<path d="M1132 1240 c0 -14 2 -19 5 -12 2 6 2 18 0 25 -3 6 -5 1 -5 -13z"/>
<path d="M1197 1253 c-4 -3 -7 -11 -7 -17 0 -6 5 -5 12 2 6 6 9 14 7 17 -3 3
-9 2 -12 -2z"/>
<path d="M1237 1247 c-3 -8 -2 -20 3 -26 5 -9 8 -4 8 13 0 29 -3 32 -11 13z"/>
<path d="M1150 1221 c0 -6 7 -7 17 -4 10 4 14 2 9 -5 -3 -6 -2 -13 3 -16 5 -4
8 2 7 11 -3 19 -36 32 -36 14z"/>
<path d="M1536 1338 c3 -4 12 -8 20 -8 8 0 14 4 14 8 0 4 -9 8 -19 8 -11 0
-17 -4 -15 -8z"/>
<path d="M1582 1320 c0 -14 2 -19 5 -12 2 6 2 18 0 25 -3 6 -5 1 -5 -13z"/>
<path d="M1470 1315 c0 -8 4 -15 8 -15 5 0 9 7 9 15 0 8 -4 15 -9 15 -4 0 -8
-7 -8 -15z"/>
<path d="M1517 1323 c-4 -3 -7 -11 -7 -17 0 -6 5 -5 12 2 6 6 9 14 7 17 -3 3
-9 2 -12 -2z"/>
<path d="M1535 1301 c-3 -5 0 -13 6 -17 8 -5 9 -3 4 6 -6 10 -4 12 8 7 10 -3
17 -2 17 3 0 13 -27 13 -35 1z"/>
<path d="M1615 1302 c-8 -9 -6 -40 4 -47 5 -3 13 0 17 6 4 8 3 9 -4 5 -8 -5
-12 1 -12 14 0 12 4 19 9 15 5 -3 12 -2 15 3 5 9 -20 12 -29 4z"/>
<path d="M1460 1280 c35 -24 54 -31 30 -11 -14 11 -29 21 -35 21 -5 0 -3 -5 5
-10z"/>
<path d="M1491 1287 c2 -1 14 -10 26 -20 17 -15 23 -16 29 -5 4 7 4 10 -1 6
-4 -4 -14 -1 -22 7 -8 8 -19 15 -25 15 -6 0 -9 -1 -7 -3z"/>
<path d="M1650 1280 c0 -5 5 -10 10 -10 6 0 10 5 10 10 0 6 -4 10 -10 10 -5 0
-10 -4 -10 -10z"/>
<path d="M1590 1265 c0 -5 10 -21 21 -35 13 -17 17 -18 10 -5 -17 33 -31 51
-31 40z"/>
<path d="M1475 1241 c-3 -5 -2 -12 3 -15 5 -3 9 1 9 9 0 17 -3 19 -12 6z"/>
<path d="M1541 1240 c-9 -5 -4 -7 13 -7 29 0 32 2 13 10 -8 3 -20 2 -26 -3z"/>
<path d="M1636 1242 c-3 -5 1 -9 9 -9 8 0 12 4 9 9 -3 4 -7 8 -9 8 -2 0 -6 -4
-9 -8z"/>
<path d="M1596 1213 c4 -15 -1 -16 -25 -4 -12 7 -18 6 -18 -2 0 -7 12 -13 26
-12 24 0 28 5 18 23 -2 4 -2 1 -1 -5z"/>
<path d="M1521 1204 c0 -11 3 -14 6 -6 3 7 2 16 -1 19 -3 4 -6 -2 -5 -13z"/>
<path d="M2293 1353 c-7 -3 -13 -11 -13 -19 0 -8 -4 -14 -9 -14 -16 0 -41 -30
-41 -49 0 -27 42 -43 74 -28 14 7 28 19 31 29 3 9 13 22 22 30 15 12 15 11 5
-9 -19 -35 -14 -43 27 -43 46 0 71 8 71 22 0 6 -8 4 -17 -3 -11 -9 -8 2 10 34
15 26 23 47 17 47 -6 0 -13 -7 -16 -15 -4 -8 -13 -15 -22 -15 -8 0 -29 -15
-44 -32 -19 -22 -24 -24 -14 -8 21 33 20 40 -7 40 -15 0 -29 -9 -37 -25 -10
-18 -16 -22 -22 -13 -8 13 -9 11 -12 -14 -2 -21 -40 -15 -44 6 -4 21 16 38 37
31 9 -4 12 1 8 15 -6 21 8 28 16 8 2 -7 8 -10 13 -5 11 10 -18 36 -33 30z
m137 -51 c0 -5 -7 -17 -15 -28 -14 -18 -14 -17 -4 9 12 27 19 34 19 19z"/>
<path d="M257 1332 c-11 -12 -13 -22 -7 -32 14 -23 12 -30 -9 -30 -24 0 -36
-16 -19 -26 15 -10 92 -5 96 5 1 5 23 7 47 5 24 -2 47 1 50 7 5 7 11 7 19 0 7
-6 42 -9 79 -7 61 2 65 1 56 -16 -6 -11 -6 -18 0 -18 5 0 11 7 15 15 3 8 17
15 32 15 22 0 25 -2 14 -15 -8 -10 -9 -15 -2 -15 6 0 15 7 20 16 7 13 26 16
93 16 64 0 89 4 103 17 18 15 19 15 13 -2 -6 -15 -2 -18 15 -15 12 2 24 10 26
18 5 13 3 13 -13 0 -17 -14 -18 -14 -6 8 10 18 9 26 -5 45 l-16 22 5 -27 c2
-15 0 -25 -5 -22 -4 3 -11 -1 -14 -10 -3 -8 -13 -17 -21 -20 -14 -6 -14 -3 1
18 18 28 20 36 8 36 -5 0 -15 -11 -22 -25 -7 -14 -15 -23 -17 -21 -3 2 0 14 7
25 16 30 3 26 -27 -9 -13 -16 -30 -30 -36 -30 -7 0 1 10 16 21 22 17 25 24 16
35 -10 12 -15 12 -30 -2 -11 -10 -19 -12 -19 -6 0 7 -11 12 -25 12 -14 0 -25
-4 -25 -8 0 -5 -7 -17 -16 -28 -15 -18 -15 -18 -5 3 15 30 14 33 -14 33 -14 0
-25 -4 -25 -8 0 -5 -7 -17 -15 -28 -15 -18 -15 -18 -9 7 3 15 1 30 -5 33 -10
6 -51 -30 -51 -46 0 -4 -5 -8 -11 -8 -6 0 -1 15 10 34 23 37 25 46 12 46 -5 0
-16 -16 -25 -35 -16 -33 -56 -66 -56 -47 0 6 9 12 20 15 11 3 20 12 20 21 0
20 -49 22 -69 4 -11 -11 -12 -10 -6 1 5 9 3 12 -6 9 -8 -3 -22 -1 -31 3 -12 7
-21 3 -32 -13 -15 -22 -16 -22 -16 -2 0 43 -53 60 -83 26z m23 -13 c-7 -11
-14 -18 -17 -15 -3 3 0 12 7 21 18 21 23 19 10 -6z m41 -1 c4 -41 -17 -73 -40
-59 -11 7 -10 14 5 40 19 32 33 40 35 19z m139 -12 c0 -2 -8 -10 -17 -17 -16
-13 -17 -12 -4 4 13 16 21 21 21 13z m30 0 c0 -3 -4 -8 -10 -11 -5 -3 -10 -1
-10 4 0 6 5 11 10 11 6 0 10 -2 10 -4z m78 -16 c-7 -10 -14 -17 -17 -15 -4 4
18 35 25 35 2 0 -1 -9 -8 -20z m56 -5 c-9 -14 -18 -25 -21 -25 -5 0 5 18 20
38 17 22 18 13 1 -13z m64 -1 c-7 -15 -14 -21 -16 -15 -2 7 2 18 8 26 18 22
21 18 8 -11z m-302 -10 c-11 -8 -25 -14 -30 -13 -6 0 -1 5 12 11 12 6 22 16
22 21 0 6 3 7 7 3 5 -4 -1 -14 -11 -22z"/>
<path d="M390 1339 c0 -5 5 -7 10 -4 6 3 10 8 10 11 0 2 -4 4 -10 4 -5 0 -10
-5 -10 -11z"/>
<path d="M1900 1340 c-8 -5 -11 -12 -8 -15 4 -4 13 -3 20 1 36 23 50 8 21 -22
-10 -10 -17 -19 -15 -21 7 -9 0 -22 -14 -27 -23 -9 -37 3 -23 20 14 17 3 32
-12 17 -19 -19 -6 -48 22 -51 22 -3 32 5 58 48 17 27 31 52 31 55 0 9 -65 5
-80 -5z"/>
<path d="M2182 1338 c-7 -7 -12 -17 -12 -22 0 -6 -10 -22 -21 -36 -20 -24 -20
-18 -3 25 5 11 -1 15 -19 15 -17 0 -28 -7 -32 -20 -8 -25 -25 -26 -18 -1 7 27
-18 39 -33 15 -7 -10 -20 -28 -29 -39 -15 -19 -15 -19 -9 7 3 15 1 35 -5 45
-8 14 -11 14 -11 3 0 -8 -9 -26 -20 -40 -27 -35 -25 -51 3 -20 12 14 19 21 15
16 -20 -25 -7 -34 47 -33 30 1 55 4 55 7 0 3 7 15 15 26 15 18 15 18 9 -9 -6
-28 -6 -28 31 -25 23 2 40 9 43 18 5 13 3 13 -13 0 -18 -14 -18 -13 0 18 11
17 22 32 25 32 4 0 7 7 7 15 0 18 -9 19 -25 3z m-122 -49 c-7 -11 -14 -18 -17
-15 -3 3 0 12 7 21 18 21 23 19 10 -6z"/>
<path d="M561 954 c-12 -25 -19 -50 -16 -54 3 -5 1 -10 -4 -12 -4 -1 -12 -13
-15 -26 -10 -30 18 -40 45 -16 20 18 20 18 10 -10 -14 -36 -14 -36 8 -36 16 0
49 33 110 113 23 29 -2 44 -28 18 -22 -22 -28 -17 -11 9 5 9 5 19 -2 28 -9 10
-17 7 -41 -15 l-29 -28 16 32 c20 41 20 43 -4 43 -13 0 -25 -14 -39 -46z"/>
<path d="M2091 984 c-29 -21 -27 -36 17 -109 43 -76 71 -87 62 -26 -1 12 1 13
14 2 16 -13 45 -4 44 14 0 6 -13 18 -29 28 -17 11 -29 28 -29 40 -1 46 -45 74
-79 51z m39 -49 c0 -8 -2 -15 -4 -15 -2 0 -6 7 -10 15 -3 8 -1 15 4 15 6 0 10
-7 10 -15z"/>
<path d="M1960 910 c-19 -19 -19 -20 8 -77 48 -100 46 -98 79 -84 38 15 44 56
7 47 -25 -7 -26 -5 -28 44 -1 14 -7 25 -15 25 -8 0 -16 6 -18 13 -3 6 0 12 6
12 6 0 11 9 11 20 0 26 -24 26 -50 0z"/>
<path d="M735 828 c-35 -72 -39 -105 -9 -94 8 3 13 2 10 -3 -7 -11 14 -20 32
-14 17 6 15 30 -3 37 -19 7 -9 33 16 41 20 7 27 35 9 35 -5 0 -10 5 -10 10 0
6 8 10 19 10 10 0 24 6 30 13 8 11 5 16 -15 25 -14 7 -29 12 -35 12 -5 0 -25
-32 -44 -72z"/>
<path d="M1854 856 c-3 -8 -13 -12 -24 -9 -25 7 -31 -8 -19 -51 6 -22 14 -34
21 -30 7 4 8 3 4 -4 -8 -13 13 -92 24 -92 13 0 30 27 22 36 -4 4 1 2 10 -5 20
-15 38 -7 38 17 0 25 -52 152 -62 152 -5 0 -11 -6 -14 -14z"/>
<path d="M866 769 c-32 -90 -28 -104 29 -94 38 7 52 31 46 82 -1 6 3 14 9 18
17 11 11 54 -9 65 -37 19 -46 11 -75 -71z m31 -61 c-3 -7 -5 -2 -5 12 0 14 2
19 5 13 2 -7 2 -19 0 -25z"/>
<path d="M1684 812 c-21 -13 -24 -46 -10 -106 18 -78 40 -93 76 -54 16 17 19
30 14 53 -9 42 -20 52 -44 37 -18 -11 -20 -10 -19 10 0 13 3 18 5 11 7 -17 34
-4 34 16 0 32 -31 50 -56 33z m46 -118 c0 -8 -5 -12 -10 -9 -6 4 -8 11 -5 16
9 14 15 11 15 -7z"/>
<path d="M1126 778 c-8 -26 -16 -65 -22 -116 -6 -51 -6 -52 21 -52 44 0 63 16
70 62 11 61 8 100 -7 109 -20 13 -58 11 -62 -3z m39 -77 c0 -21 -6 -44 -13
-51 -10 -9 -12 -6 -8 17 2 15 5 41 5 57 1 43 15 22 16 -23z"/>
<path d="M1557 783 c-2 -5 -3 -17 -1 -28 2 -11 6 -45 10 -75 7 -64 10 -70 31
-70 16 0 15 30 -3 138 -6 38 -25 56 -37 35z"/>
<path d="M1287 767 c-12 -9 -17 -34 -19 -92 l-3 -80 35 0 c40 0 55 29 20 38
-22 6 -22 6 -3 38 13 24 15 33 6 36 -7 3 -13 11 -13 19 0 9 4 13 9 10 8 -5 21
15 21 33 0 12 -37 10 -53 -2z"/>
<path d="M1422 759 c-21 -22 -19 -52 5 -80 12 -14 12 -17 -2 -22 -19 -8 -19
-41 0 -57 12 -10 22 -10 39 -2 36 16 42 49 16 85 -20 27 -21 31 -6 39 20 11
20 22 0 42 -20 21 -29 20 -52 -5z"/>
</g>
</svg>
