<svg id="Calque_1" xmlns="http://www.w3.org/2000/svg" viewBox="0 0 280 170"><style>.st0{display:none}.st1{display:inline}.st2{fill:#2c303d}.st3{fill:#235269}.st4{fill:#bba385}.st5,.st6{display:none;fill:#9e8871}.st6{fill:#fff}.st7{opacity:.3;fill:#fff}.st8{fill:#9e8871}.st9{display:none;opacity:8e-2;fill:#fff}</style><g id="XMLID_1_"><g id="XMLID_17_" class="st0"><g id="XMLID_369_" class="st1"><path id="XMLID_394_" class="st2" d="M57.9 125.8c-.7 2.4-1.4 4.8-2 7.3.5-.6 1.1-1.2 1.6-1.7 1.3-1.2 2.6-2.5 3.8-3.7.8.5 1.7.9 2.5 1.4-.1.2-.2.3-.3.5-3.3 3.3-6.6 6.4-10.1 9.6-.5-.3-1.1-.6-1.6-.9.5-2.2 1.1-4.4 1.7-6.6-1.7 1.5-3.4 3.1-5.1 4.6l-1.5-.9c1.1-4.5 2.4-9 3.8-13.4.1-.1.2-.3.3-.4.8.6 1.6 1.1 2.5 1.6l-1.5 5.1c-.3.7-.5 1.5-.8 2.2 1.9-1.7 3.7-3.4 5.5-5.1.6 0 .8.2 1.2.4z"/><path id="XMLID_392_" class="st2" d="M75 137.8c-1.6-.7-2.3-1-3.9-1.7-.3.6-.5 1.2-.8 1.8 1.2.6 2.4 1.1 3.6 1.6-.4.9-.8 1.9-1.2 2.8-1.2-.5-2.5-1.1-3.7-1.6-.3.7-.7 1.4-1 2.2 1.6.7 2.6 1.2 4.2 1.9-.4.9-.8 1.9-1.2 2.9-2.6-1.1-4.6-2-7.1-3.2 2-4.1 4-8.2 5.9-12.3 2.4 1.1 4 1.9 6.4 2.9-.4.7-.8 1.7-1.2 2.7z"/><path id="XMLID_388_" class="st2" d="M88.2 146.3c.7.8.9 1.9.5 3.1-.7 2.3-2.5 3.8-4.9 3-1.8-.6-3.6-1.2-5.4-1.9 1.6-4.3 3.1-8.5 4.7-12.8 1.5.6 3 1.1 4.5 1.6 1.8.6 2.8 2.8 2.1 5.1-.2.7-.8 1.5-1.5 1.9zm-3.5-4.8c-.2.7-.5 1.4-.7 2.1l1.8.6c1.1.4 1.8-1.8.7-2.1l-1.8-.6zm-1.7 4.9c-.3.7-.5 1.5-.8 2.2.8.3 1.5.5 2.3.8 1.2.4 1.9-1.8.7-2.2-.7-.3-1.4-.6-2.2-.8z"/><path id="XMLID_385_" class="st2" d="M109 158.4c-1.5-.2-3-.5-4.5-.8.8-4.5 1.7-8.9 2.5-13.4 1.4.3 2.7.5 4.1.7 7.1 1.1 5.8 14.6-2.1 13.5zm-.9-3.3c.5.1.9.2 1.4.2 3.8.6 4.7-6.7 1.1-7.2-.5-.1-.9-.1-1.4-.2-.3 2.4-.7 4.8-1.1 7.2z"/><path id="XMLID_383_" class="st2" d="M130.1 149.9c-1.7 0-2.5-.1-4.2-.2 0 .6-.1 1.3-.1 1.9 1.3.1 2.6.1 3.9.2 0 1-.1 2.1-.1 3.1-1.3 0-2.6-.1-4-.2 0 .8-.1 1.6-.1 2.4 1.7.1 2.8.1 4.5.2 0 1-.1 2.1-.1 3.1-2.8-.1-4.9-.2-7.7-.4.3-4.5.7-9.1 1-13.6 2.5.2 4.3.3 6.9.4.1.9.1 2 0 3.1z"/><path id="XMLID_381_" class="st2" d="M143.5 156.1c-.1-1-1-1.1-2.2-1.1-2.5-.1-4.2-1.1-4.3-4.1-.1-5.8 8.2-6.2 8.6-.4-1 .1-1.8.1-2.8.2-.1-1.8-3.1-1.5-3.1.1 0 1 .8 1.2 1.9 1.3 2.3.2 4.5.4 4.8 3.8.5 5.8-9.5 6.4-9.5.3 1 0 1.9 0 2.9-.1.1 1.8 3.8 1.6 3.7 0z"/><path id="XMLID_379_" class="st2" d="M158.7 155.5c.2 1.1.3 1.8.5 3-2 .3-4 .6-6.1.8-.1-1.2-.2-1.9-.4-3 .5-.1 1-.1 1.5-.2l-.9-7.5c-.4.1-.9.1-1.3.2-.1-1.2-.2-1.9-.4-3 1.8-.2 3.6-.5 5.3-.7.2 1.1.3 1.8.5 3-.4.1-.9.1-1.3.2.4 2.5.7 5 1.1 7.5.5-.2 1-.2 1.5-.3z"/><path id="XMLID_377_" class="st2" d="M168.5 142.6c2.2-.5 4.8.3 6.2 3.4-.9.3-1.9.5-2.8.7-.7-1-1.6-1.3-2.7-1-1.8.4-2.4 2.3-1.9 4.3.5 2.2 1.9 3.4 3.7 3 1.2-.3 1.9-.8 2.1-2.2l-2.4.6c-.2-1-.5-2-.7-2.9 1.8-.4 3.5-.9 5.3-1.4.4 1.3.8 2.6.7 3.9-.1 3-2 4.6-4.2 5.1-3 .7-6.5-1-7.4-5.5-1-4.5 1.3-7.3 4.1-8z"/><path id="XMLID_375_" class="st2" d="M185.4 145.1c.7 2.1 1.5 4.2 2.2 6.3-1 .4-2 .7-3.1 1-1.4-4.3-2.8-8.7-4.3-13 .3-.1.7-.2 1-.3 2.5 1.5 5.1 3 7.7 4.4l-2.4-6.3c.9-.3 1.8-.7 2.7-1.1 1.7 4.2 3.4 8.5 5.1 12.7-.3.1-.7.3-1 .4-2.6-1.2-5.3-2.6-7.9-4.1z"/><path id="XMLID_373_" class="st2" d="M204.2 132.8c-1.5.8-2.3 1.2-3.8 1.9.3.6.6 1.2.8 1.7l3.6-1.8c.5.9 1 1.8 1.4 2.8l-3.6 1.8c.3.7.7 1.4 1 2.2 1.6-.8 2.5-1.3 4.1-2.1.5.9 1 1.8 1.4 2.7-2.6 1.3-4.5 2.3-7.1 3.5-1.9-4.1-3.8-8.3-5.7-12.4 2.4-1.1 4-1.9 6.3-3.1.6.9 1.1 1.9 1.6 2.8z"/><path id="XMLID_370_" class="st2" d="M224.9 132.1c.1.1.2.3.3.4-1 .7-2 1.3-3 2-1.3-.7-2.6-1.5-3.9-2.2-.5.3-.9.6-1.4.9.7 1.1 1.4 2.3 2.1 3.4-.9.6-1.8 1.1-2.7 1.6-2.3-3.9-4.6-7.8-6.9-11.8 1.4-.8 2.9-1.7 4.3-2.6 3.8-2.4 8.1 2.4 6.9 6 1.4.8 2.8 1.5 4.3 2.3zm-9.6-5.7c-.6.4-1.2.8-1.8 1.1.6.9 1.2 1.9 1.8 2.9.6-.4 1.2-.8 1.9-1.2 1.3-.8-.4-3.7-1.9-2.8z"/></g></g><g id="XMLID_10_"><g id="XMLID_672_"><path id="XMLID_724_" class="st3" d="M52.6 140.4c.6.4 1.2.8 1.8 1.1-.1.2-.3.3-.4.5-.8-.5-1.5-1-2.3-1.5 2.2-5.3 4.5-10.5 6.8-15.6.2.1.4.3.6.4-2.3 5-4.5 10-6.5 15.1zm18.8-8.9c-3.4 4.5-7 8.9-10.6 13.3-.8-.4-1.5-.9-2.3-1.3 1.1-3.2 2.3-6.3 3.6-9.4-2.2 2.5-4.4 5.1-6.6 7.5-.8-.5-1.5-.9-2.3-1.4 2.2-5.3 4.4-10.5 6.8-15.6.7.4 1.3.9 2 1.3-1.8 3.8-3.6 7.5-5.3 11.4 2.7-3.2 5.4-6.4 8-9.7.7.4 1.4.8 2 1.2-1.6 3.8-3.3 7.7-4.8 11.6h.1c2.6-3.3 5.1-6.6 7.5-10 .5.3 1.2.7 1.9 1.1zM58 135c.2-.5.4-1 .7-1.4 1.5-1.8 3.1-3.6 4.6-5.5.1.1.2.1.3.2-1.9 2.2-3.7 4.5-5.6 6.7zm-.1 8.7c.6.4 1.2.7 1.8 1.1-.1.2-.3.3-.4.5-.8-.4-1.5-.9-2.3-1.3.8-2.1 1.6-4.2 2.4-6.2.5-.6 1-1.1 1.5-1.7-1.1 2.4-2 5-3 7.6zm5.2-5.6l.6-1.5c1.5-1.9 2.9-3.8 4.3-5.7.1.1.2.1.4.2-1.7 2.4-3.5 4.7-5.3 7z"/><path id="XMLID_719_" class="st3" d="M70.6 150.4c1.9.9 3.7 1.7 5.6 2.5l-.3.6c-2.1-.9-4.2-1.8-6.2-2.8 2.4-5.1 4.8-10.1 7.2-15.2.2.1.3.2.5.2-2.2 5-4.5 9.8-6.8 14.7zm7.7.2c-.3.7-.6 1.5-.9 2.2-2.1-.9-4.1-1.8-6.2-2.7 2.4-5.1 4.7-10.1 7.1-15.2 1.7.8 3.5 1.6 5.3 2.3-.3.7-.6 1.5-.9 2.2-1.1-.4-2.1-.9-3.1-1.4-.6 1.2-1.1 2.5-1.7 3.7.8.3 1.5.7 2.3 1-.3.7-.6 1.5-.9 2.2-.8-.3-1.6-.7-2.3-1-.7 1.7-1.5 3.3-2.2 5 1 .7 2.3 1.2 3.5 1.7zm1-11.3l.3-.6c.7.3 1.3.6 2 .9l-.3.6c-.6-.3-1.3-.6-2-.9zm-2.6 5.9l.3-.6c.4.2.8.3 1.2.5l-.3.6c-.4-.1-.8-.3-1.2-.5z"/><path id="XMLID_712_" class="st3" d="M88.6 157.5c.5.2 1.1.2 1.6.2-.8.4-1.7.5-2.7.2-1.3-.4-2.5-.8-3.8-1.3 1.9-5.3 3.8-10.5 5.7-15.8.2-.2.5-.3.7-.5-1.9 5.3-3.7 10.5-5.6 15.8 1 .3 1.9.7 2.9 1 .4.1.8.3 1.2.4zm5.3-3.9c-.8 2.6-2.7 4.2-5.1 3.4-1.2-.4-2.5-.8-3.7-1.3 1.9-5.3 3.7-10.6 5.6-15.8 1 .3 1.9.7 2.9 1 2.1.7 2.8 2.5 2.1 5.1-.4 1.4-1.4 2.7-2.5 2.8.9 1.1 1.4 2.6.7 4.8zm-3-6.8h.1c1.7.5 2.1.2 2.5-1.3.4-1.2.3-2-.6-2.2-.3-.1-.6-.2-.8-.3-.4 1.3-.8 2.5-1.2 3.8zm.7 6.1c.5-1.7.5-3.1-1.1-3.6-.2-.1-.3-.1-.5-.2-.6 1.7-1.1 3.4-1.7 5.2.3.1.6.2.8.3 1.1.4 2.1-.4 2.5-1.7zm.7-6.6c.3-1 .3-1.7-.2-2.1.1-.2.2-.5.2-.7.2.1.3.1.5.2.6.2.7.8.4 1.7-.2.8-.4 1.3-1 1.2 0-.1.1-.2.1-.3zm-1.1 6.5c-.2.7-.6 1.2-1.1 1.4.1-.2.1-.3.2-.5.4-1.4.5-2.5-.3-3.2.1-.3.2-.5.3-.8h.1c1.1.5 1.4 1.3.8 3.1z"/><path id="XMLID_707_" class="st3" d="M115.4 163.6c.4 0 .7 0 1.1-.1-.6.5-1.4.7-2.1.6-1.6-.2-3.1-.5-4.7-.7 1-5.5 1.9-11 2.9-16.5.2 0 .3.1.5.1l-2.7 15.9c1 .2 2 .3 3 .5.6 0 1.3.1 2 .2zm4.7-12c-.3 2.4-.5 4.8-.8 7.1-.3 2.5-1.5 4.7-3.8 4.4-1.6-.2-3.1-.4-4.7-.7.9-5.5 1.8-11 2.8-16.5l4.2.6c1.3.2 2.3 1.5 2.4 3.1 0 .7-.1 1.4-.1 2zm-2.3-.2c.2-1.3.1-2.4-.9-2.5-.5-.1-.9-.1-1.4-.2-.6 3.9-1.2 7.9-1.8 11.8.5.1 1 .1 1.5.2 1 .1 1.4-.8 1.6-2.2.4-2.4.7-4.8 1-7.1zm-.4-.1c-.3 2.4-.6 4.8-1 7.1-.2 1.3-.5 1.7-.9 1.8.1-.3.1-.5.2-.8.3-2.4.7-4.7 1-7.1.2-1.4.1-2.4-.9-2.5h-.2c0-.2.1-.5.1-.7.4.1.7.1 1.1.2.5 0 .9.3.6 2z"/><path id="XMLID_702_" class="st3" d="M127.1 164.7c2 .1 4 .2 6 .2v.7c-2.2 0-4.4-.1-6.7-.3.4-5.6.7-11.2 1.1-16.7h.5c-.3 5.4-.6 10.8-.9 16.1zm7.1-2.6v2.4c-2.2 0-4.4-.1-6.6-.2.3-5.6.6-11.2 1-16.8 1.9.1 3.8.2 5.6.2v2.4c-1.1 0-2.2 0-3.4-.1-.1 1.4-.1 2.7-.2 4.1.8 0 1.6.1 2.5.1 0 .8 0 1.6-.1 2.4-.8 0-1.7 0-2.5-.1-.1 1.8-.1 3.6-.2 5.4 1.3.1 2.6.2 3.9.2zm-3.2-10.9v-.7c.7 0 1.4 0 2.1.1v.7c-.7 0-1.4-.1-2.1-.1zm-.2 6.5v-.7h1.2v.7h-1.2z"/><path id="XMLID_697_" class="st3" d="M142.8 157c-1.5-1.7-1.9-2.3-2-4.6 0-.9.2-1.8.6-2.4-.1.4-.1.8-.1 1.3.1 2.4.6 3.3 2.1 4.9.7.8 1.5 1.6 2.2 2.4.6.7.8 1.2.9 2 0 .6-.2 1-.5 1.1-.1-.9-.4-1.5-1-2.2l-.2-.2v-.7h-.6c-.4-.5-.9-1.1-1.4-1.6zm3.2 7.9c.7 0 1.3-.2 1.8-.5-.7.7-1.6 1.1-2.7 1.2-2.1.1-3.9-1.2-4-3.6 0-.6 0-1.2-.1-1.7h.6v.6c.1 2.5 1.9 4.2 4.4 4zm3.5-4.5c.2 2.4-1.5 3.9-3.6 4-2.1.1-3.9-1.1-3.9-3.6 0-.6 0-1.2-.1-1.7.8 0 1.7-.1 2.5-.1 0 .5.1 1.1.1 1.6.1 1 .6 1.5 1.3 1.5.6 0 1.1-.7 1-1.6-.1-.9-.4-1.6-1-2.2-.8-.8-1.5-1.6-2.2-2.4-1.5-1.7-1.9-2.3-2-4.6-.1-2.3 1.3-3.8 3.2-3.9 2-.1 3.5 1.2 3.7 3.5 0 .4.1.8.1 1.1-.8.1-1.6.1-2.4.2v-.7c-.1-1.2-.6-1.8-1.2-1.8s-1 .6-1 1.4c0 .8.2 1.3.8 2l2.7 3.3c1.2 1.2 1.9 2 2 4zm-4-7.2v-.6c-.1-1.1-.5-1.7-1-1.8.1-.4.3-.7.7-.7.4 0 .8.5.8 1.4 0 .4.1.7.1 1.1.6 0 1.3-.1 1.9-.1 0 .2 0 .4.1.7h-2.6c0 .1 0 0 0 0z"/><path id="XMLID_694_" class="st3" d="M158.3 163.4c.7-.1 1.3-.2 2-.3 0 .2.1.5.1.7-.9.1-1.7.3-2.6.4-.8-5.5-1.6-11.1-2.3-16.6.2 0 .3 0 .5-.1.8 5.3 1.5 10.6 2.3 15.9zm.2-17.5c.9 5.5 1.8 11 2.7 16.6-.9.1-1.7.3-2.6.4-.8-5.5-1.6-11.1-2.4-16.6.8-.1 1.5-.2 2.3-.4z"/><path id="XMLID_689_" class="st3" d="M174 160.5c.6-.1 1.1-.4 1.5-.7-.4.7-1.2 1.3-2.3 1.6-2.9.7-4.4-1.1-4.7-2.8-.7-3.1-1.4-6.3-2.1-9.4-.2-.8-.2-1.7.2-2.4 0 .4 0 .8.1 1.2.7 3.2 1.4 6.3 2.1 9.5.4 2 2.2 3.8 5.2 3zm.3-13.1l-2.4.6-.3-1.2c-.1-.5-.7-1.2-1.4-1.1-.8.2-1 1.2-.9 1.6.8 3.1 1.5 6.2 2.3 9.4.1.5.7 1.3 1.6 1 .9-.2 1.2-1.2.9-2.5-.2-.8-.4-1.6-.6-2.5-.5.1-.9.2-1.4.4-.2-.8-.4-1.5-.6-2.3 1.2-.3 2.3-.6 3.5-.9.5 1.7.9 3.3 1.4 5 .6 2.2 0 4.5-2.6 5.2-2.9.7-4.4-1.1-4.7-2.7-.7-3.2-1.4-6.3-2.1-9.5-.4-1.7.1-3.9 2.6-4.5 2.3-.6 3.8 1.1 4.3 2.8.2.4.3.8.4 1.2zm-.8 9.3c-.2-.8-.4-1.6-.6-2.5-.5.1-.9.2-1.4.3-.2-.8-.4-1.6-.6-2.3.2 0 .3-.1.5-.1.1.6.3 1.1.4 1.7.5-.1.9-.2 1.4-.3.2.7.3 1.3.5 2 .2.9.2 1.4-.2 1.7.1-.2 0-.4 0-.5zm-2.1-7.3l-.3-1.2c-.1-.5-.7-1.2-1.3-1.1 0-.3.2-.8.6-.9.5-.1.9.5.9.7.1.6.3 1.1.4 1.7.6-.2 1.2-.3 1.9-.5.1.2.1.4.2.6-.8.3-1.6.5-2.4.7z"/><path id="XMLID_684_" class="st3" d="M185.8 156.9c.7-.2 1.3-.4 2-.7.1.2.1.4.2.6-.8.3-1.7.6-2.5.9-1.8-5.3-3.5-10.6-5.3-15.9.2-.1.3-.1.5-.2l5.1 15.3zm1.5-19c2.1 5.2 4.2 10.4 6.2 15.6-.8.3-1.7.7-2.5 1-2-2.7-3.9-5.4-5.7-8.1l3.3 9c-.8.3-1.7.6-2.5.9l-5.4-15.9c.8-.3 1.6-.5 2.4-.8 1.7 2.7 3.5 5.3 5.4 8l-3.3-8.7c.6-.4 1.3-.7 2.1-1zm3.6 17.1c.6-.2 1.2-.5 1.9-.7.1.2.2.4.2.6-.8.3-1.7.6-2.5 1-.9-1.3-1.9-2.6-2.8-3.9-.4-1-.7-2-1.1-3 1.4 2 2.9 4 4.3 6zm-3.8-10c-.4-.6-.9-1.3-1.3-1.9-.4-1-.7-1.9-1.1-2.9.2-.1.3-.1.5-.2.6 1.7 1.2 3.4 1.9 5z"/><path id="XMLID_679_" class="st3" d="M201.7 150.5c1.9-.9 3.7-1.8 5.6-2.7l.3.6c-2 1.1-4.1 2.1-6.1 3-2.3-5.1-4.7-10.2-7-15.2.2-.1.3-.2.5-.2 2.2 4.7 4.4 9.6 6.7 14.5zm5.1-5.8c.4.7.8 1.4 1.1 2.1-2 1.1-4 2.1-6.1 3-2.4-5.1-4.8-10.1-7.1-15.2 1.7-.8 3.5-1.7 5.2-2.6.4.7.7 1.4 1.1 2.1-1 .5-2 1.1-3.1 1.6.6 1.2 1.2 2.5 1.8 3.7.8-.4 1.5-.8 2.3-1.1.4.7.7 1.4 1.1 2.1-.8.4-1.5.8-2.3 1.2.8 1.6 1.6 3.3 2.4 4.9l3.6-1.8zm-8-8l-.3-.6c.7-.3 1.3-.7 2-1l.3.6c-.7.3-1.4.6-2 1zm2.8 5.8l-.3-.6c.4-.2.8-.4 1.1-.6l.3.6c-.3.2-.7.4-1.1.6z"/><path id="XMLID_673_" class="st3" d="M215.1 143.3c.6-.4 1.2-.7 1.8-1.1.1.2.2.4.4.6-.8.5-1.6.9-2.3 1.4-2.8-4.8-5.7-9.6-8.5-14.5.2-.1.3-.2.5-.3 2.7 4.7 5.4 9.3 8.1 13.9zm-.4-8.1c-.3.2-.6.4-.7.4l3.6 5.7c-.8.5-1.5 1-2.3 1.4-2.9-4.8-5.7-9.6-8.6-14.4 1.2-.7 2.3-1.4 3.4-2.1 2-1.3 4.1-.1 5.6 2.1 1.4 2.1 1.5 3.9.9 5.2 2.1 1.5 4.2 3 6.3 4.4-.8.5-1.6 1.1-2.4 1.6-2-1.4-3.9-2.9-5.8-4.3zm-1.4-2.2c1.4-.9 1.7-1.3.3-3.4-.7-1.1-1.5-1.8-2.3-1.3-.4.3-.9.6-1.3.8.9 1.4 1.8 2.9 2.7 4.3.2-.1.4-.3.6-.4zm0-3.2c.8 1.2 1 1.7.6 2.1-.1-.2-.3-.5-.5-.9-.7-1.1-1.5-1.9-2.3-1.4-.1.1-.2.1-.3.2-.1-.2-.2-.4-.4-.6.3-.2.7-.4 1-.7.5-.1 1-.1 1.9 1.3zm8.7 9.2c.2.1.4.3.6.4-.8.5-1.6 1-2.4 1.6-1.5-1.1-3-2.2-4.5-3.4-.4-.6-.8-1.2-1.1-1.8.1 0 .1-.1.2-.1 1.9 1.5 3.8 2.9 5.8 4.3.4-.3.9-.6 1.4-1z"/></g></g><g id="XMLID_59_"><path id="XMLID_60_" class="st4" d="M25.3 98.3l4.1-7.1h-.2c-2.8 0-4.2 2.6-3.1 4l-.7.8c-1.8-1.6-.3-5.8 3.8-5.8 7.7 0 5.1 10.9-.6 10.9-1.3 0-2.1-.5-2.9-.9-.6.8-1.4 1.1-2.3 1.1-1.2 0-1.8-.7-1.8-1.5s.7-1.6 2-1.6c.6 0 1.1.2 1.6.4l.1-.3zm-.7 1.2c-.4-.2-.8-.3-1.2-.3-.4 0-.6.2-.6.4s.2.4.7.4c.6.1.9-.1 1.1-.5zm6.1-8.1l-4.5 7.7c.7.4 1.4.7 2.3.7 3.6.1 6-7 2.2-8.4z"/><path id="XMLID_64_" class="st4" d="M35.5 97.1l-.1.2c-.7 1.2-.1 1.7.7 1.7 1 0 2.3-.9 3.3-2.1l.1-.1c.2.1.4.3.5.5-1.2 1.4-2.8 2.6-4.4 2.6-1.7 0-2.5-1.4-1.6-2.9l1.5-2.6c.6-1 1.5-1.6 2.7-1.6 1.2 0 1.9 1 1.1 2.3l-.2.4c-.9 1.8-2.7 2-3.6 1.6zm.4-.7c.5.2 1.5.2 2.1-.9l.2-.4c.8-1.5-.6-1.7-1.4-.3l-.9 1.6z"/><path id="XMLID_67_" class="st4" d="M42.5 93l-1.9 4.8c-.5 1.4-.5 1.3.4 0l3.2-4.8h1.3l-2.3 3.5c-.8 1.5.6 1.4 1.4.5l.1-.1c.2.1.4.3.5.5-1.2 1.4-2.5 1.2-2.9.4l-.7 1.1c-1.1 1.7-3.4 1.4-2.5-.9l2-4.9h1.4z"/><path id="XMLID_69_" class="st4" d="M45.9 97.1l-.1.2c-.7 1.2-.1 1.7.7 1.7 1 0 2.3-.9 3.3-2.1l.1-.1c.2.1.4.3.5.5-1.2 1.4-2.8 2.6-4.4 2.6-1.7 0-2.5-1.4-1.6-2.9l1.5-2.6c.6-1 1.5-1.6 2.7-1.6 1.2 0 1.9 1 1.1 2.3l-.2.4c-.9 1.8-2.7 2-3.6 1.6zm.4-.7c.5.2 1.5.2 2.1-.9l.2-.4c.8-1.5-.6-1.7-1.4-.3l-.9 1.6z"/><path id="XMLID_72_" class="st4" d="M53.5 96.8c.2.1.4.3.5.5-1.2 1.4-2.5 2.6-3.7 2.6-1.2 0-1.6-1-1-2l4.6-8h1.4l-4.8 8.3c-.3.6-.2.8.2.8.6 0 1.6-.9 2.7-2.1l.1-.1z"/><path id="XMLID_74_" class="st4" d="M57 98.7c-1.9 2.4-5.4 1.3-3.6-1.8l.6-1.1.7-1.2c.8-1.4 1.7-1.9 2.8-1.9 1.3 0 2.1 1.4 1.3 2.9L57.4 98c.7 0 1.5-.4 2.1-1.1l.1-.1c.2.1.4.3.5.5-.7.9-2.1 1.4-2.9 1.4H57zm-.4-1.8l1.1-1.8c.9-1.5-.5-2.1-1.5-.5l-.7 1.2-1.1 1.9c-.8 1.5.8 1.7 1.5.5-.1-.1-.1-.3-.1-.5-.1-.4.3-.8.8-.8z"/><path id="XMLID_79_" class="st4" d="M56.2 102.8l5.7-9.9h1.4l-.3.5c1.5-1.3 3.6-.5 2.3 1.7l-1.6 2.7c-.2.3-.4.7-.6 1.1.9-.3 1.8-1.1 2.6-2l.1-.1c.2.1.5.3.5.5-1.2 1.4-2.5 2.6-4.6 2.6h-.1c-1.3 0-1.6-1.2-1.6-1.2l.8-.4c.3.5.8.4 1 0l2.1-3.7c.4-.6-.6-1.4-2.2.7l-4.3 7.4h-1.2z"/><path id="XMLID_81_" class="st4" d="M62.4 102.8l5.7-9.9h1.4l-.3.5c1.5-1.3 3.6-.5 2.3 1.7l-1.6 2.7c-.2.3-.4.7-.6 1.1.9-.3 1.8-1.1 2.6-2l.1-.1c.2.1.5.3.5.5-1.2 1.4-2.5 2.6-4.6 2.6h-.1c-1.3 0-1.6-1.2-1.6-1.2l.8-.4c.3.5.8.4 1 0l2.1-3.7c.4-.6-.6-1.4-2.2.7l-4.3 7.4h-1.2z"/><path id="XMLID_89_" class="st4" d="M73.3 97.1l-.1.2c-.7 1.2-.1 1.7.7 1.7 1 0 2.3-.9 3.3-2.1l.1-.1c.2.1.4.3.5.5-1.2 1.4-2.8 2.6-4.4 2.6-1.7 0-2.5-1.4-1.6-2.9l1.5-2.6c.6-1 1.5-1.6 2.7-1.6 1.2 0 1.9 1 1.1 2.3l-.1.4c-1 1.8-2.8 2-3.7 1.6zm.4-.7c.5.2 1.5.2 2.1-.9l.2-.4c.8-1.5-.6-1.7-1.4-.3l-.9 1.6z"/><path id="XMLID_94_" class="st4" d="M84.1 96.8c.2.1.4.3.5.5-1.2 1.4-2.5 2.6-3.7 2.6-.9 0-1.4-.6-1.2-1.4-.7.7-1.6 1.4-2.3 1.4-.9 0-1.3-.9-.5-2.1l2.8-4.8H81l-2.8 4.8c-.2.3-.5.8-.2 1 .3.1 1.1-.4 2.2-1.4l2.5-4.4h1.4l-3 5.3c-.3.6-.2.8.2.8.6 0 1.6-.9 2.7-2.1l.1-.2z"/><path id="XMLID_96_" class="st4" d="M87.2 95.3c.2-.3.1-.6-.1-.8l-.1-.2c-1.1 1.5-1.7 2.3-2.4 3.1-.2-.1-.4-.3-.5-.5.9-1.1 1.8-2.3 2.4-3.2l-.1-.2c-.5-.7-.4-1.5.4-2.2l.7.8c-.3.3-.3.6-.1.8l.8 1c.5.6.7 1.1.2 1.9L87 98.3c-.3.6-.2.8.2.8.6 0 1.6-.9 2.7-2.1l.1-.1c.2.1.4.3.5.5-1.2 1.4-2.5 2.6-3.7 2.6-1.2 0-1.6-1-1-2l1.4-2.7z"/></g><g id="XMLID_2_"><path id="XMLID_3_" class="st4" d="M189.2 92.8v-.2c0-1.8 1.9-2.3 3.5-2.3 1.4 0 2.9.1 4.2-.7l.7 1.2-2.3 3.9h1.2l-.4.7H195l-1.6 2.8c-1.2 2.1-2.8 2.9-4.2 2.9-1.8 0-3.3-1.3-3.3-2.9 0-1.8 1.6-3.1 3.3-3.1v1.1c-1.1 0-2.1.8-2.1 2 0 1.1.9 1.8 2.1 1.8 1 0 2.2-.6 3-2l1.4-2.5h-1.4l.4-.7h1.4l2.1-3.7c-.8.3-1.7.2-2.6.2-1.6 0-3 .3-3 1.4v.1h-1.3z"/><path id="XMLID_99_" class="st4" d="M199.8 95.3c.2-.3.1-.6-.1-.8l-.2-.2c-1.6 2.1-3.5 4.8-4.2 5.6-.2-.1-.4-.3-.5-.5 1-1.2 3.2-4.2 4.3-5.7l-.1-.2c-.5-.7-.4-1.5.4-2.2l.7.8c-.3.3-.3.6-.1.8l.8 1c.5.6.7 1.1.2 1.9l-1.4 2.5c-.3.6-.2.8.2.8.6 0 1.6-.9 2.7-2.1l.1-.1c.2.1.4.3.5.5-1.2 1.4-2.5 2.6-3.7 2.6-1.2 0-1.6-1-1-2l1.4-2.7z"/><path id="XMLID_101_" class="st4" d="M206 98.7c-1.9 2.4-5.4 1.3-3.6-1.8l.6-1.1.7-1.2c.8-1.4 1.7-1.9 2.8-1.9 1.3 0 2.1 1.4 1.3 2.9l-1.3 2.3c.7 0 1.5-.4 2.1-1.1l.1-.1c.2.1.4.3.5.5-.7.9-2.1 1.4-2.9 1.4h-.3zm-.4-1.8l1.1-1.8c.9-1.5-.5-2.1-1.5-.5l-.7 1.2-1.1 1.9c-.8 1.5.8 1.7 1.5.5-.1-.1-.1-.3-.1-.5-.1-.4.3-.8.8-.8z"/><path id="XMLID_104_" class="st4" d="M215.4 96.8c.2.1.4.3.5.5-1.2 1.4-2.5 2.6-3.7 2.6-1.2 0-1.6-1-1-2l1.8-3.2c.6-1.1-.4-1.4-2.5 1.3l-2.2 3.8H207l4-6.8h1.4l-.5.9c.7-.7 1.4-1.1 2-1.1.8 0 1.4.8.8 1.9l-2.1 3.6c-.3.6-.2.8.2.8.6 0 1.6-.9 2.7-2.1l-.1-.2z"/><path id="XMLID_106_" class="st4" d="M216.8 92.3h1.3l1.3-2.3h1.4l-1.3 2.3h1.2l-.4.7h-1.2l-3.1 5.3c-.3.6-.2.8.2.8.6 0 1.6-.9 2.7-2.1l.1-.1c.2.1.4.3.5.5-1.2 1.4-2.5 2.6-3.7 2.6-1.2 0-1.6-1-1-2l2.9-5h-1.3l.4-.7z"/><path id="XMLID_108_" class="st4" d="M230.5 96c1.8 2.1-.3 5.4-3.3 5.4-2.1 0-3.9-1.4-3.9-3.6 0-2.8 2.4-4.7 4.8-4.6-.2-.4-.3-.7-.3-1.1 0-1.4 1-2.5 2.4-2.5 1.2 0 2.3.7 2.3 2.1 0 1.1-.8 1.7-.8 1.7l-.8-.8s.5-.3.5-1c0-1.5-2.4-1.5-2.4.6 0 1 .7 1.4.9 1.5l-.4.7c-.2-.1-.3-.1-.5-.2-2.1-.8-4.6 1.1-4.6 3.6 0 1.6 1.4 2.6 2.8 2.6 2 0 3.4-2.3 2.3-3.7l1-.7z"/><path id="XMLID_110_" class="st4" d="M239.2 96.8c.2.1.4.3.5.5-1.2 1.4-2.5 2.6-3.7 2.6-1.2 0-1.6-1-1-2l1.8-3.2c.6-1.1-.4-1.4-2.5 1.3l-2.2 3.8h-1.4l4-6.8h1.4l-.5.9c.7-.7 1.4-1.1 2-1.1.8 0 1.4.8.8 1.9l-2.1 3.6c-.3.6-.2.8.2.8.6 0 1.6-.9 2.7-2.1v-.2z"/><path id="XMLID_112_" class="st4" d="M245.9 96.8c.2.1.4.3.5.5-1.2 1.4-2.5 2.6-3.7 2.6-.7 0-1.2-.4-1.2-.9-.7.6-1.4.9-2 .9-1.2 0-1.6-1-1-2l2-3.4c.6-1 1.7-1.6 2.4-1.6.6 0 1.1.3 1.3.7l2.1-3.6h1.4l-4.8 8.3c-.3.6-.2.8.2.8.6 0 1.6-.9 2.7-2.1l.1-.2zm-6.1 1.5c-.3.6-.2.8.2.8.6 0 1.5-.7 2.3-2.1l1.1-1.9c.7-1.3-.8-1.6-1.6-.3l-2 3.5z"/></g><g id="XMLID_5_"><path id="XMLID_6_" class="st3" d="M41.9 39.3L61.6 4.9h7.1L40.5 53.3c5.6-2.4 10.7-6.8 16.6-13.6l.5-.5c1 .4 2.2 1.5 2.7 2.5-7.8 9.1-15.1 14.1-22.5 16.4l-5.4 9.4c-5.1 8.8-15.6 7.3-15.6.5 0-5.3 6-9.3 15.7-12.2l2.4-4.1c-10.7 7-20.5 1.3-11.2-14.8l15.2-26.4c-9.2 4.6-25 5.8-25 14.7 0 3.5 3.8 5 3.8 5L15 34.7c-3.5-1.4-7.3-4.8-7.3-9.7C7.7 10.4 30 11.7 43.5 2.7L47 8.8 29 40c-7.4 13 5.1 12.9 12.9-.7zm-15.5 27l3.3-5.8c-5.5 2.1-7.2 4.2-7.2 6.1 0 2 2.4 2.4 3.9-.3z"/><path id="XMLID_9_" class="st3" d="M75.1 48.6c-9.6 12.1-26.8 6.4-17.8-9l3.1-5.3 3.5-6.1c4.1-7.1 8.4-9.3 13.8-9.3 6.7 0 10.7 7.1 6.4 14.5L77.4 45c3.6-.1 7.5-1.8 10.8-5.3l.5-.5c1 .4 2.2 1.5 2.7 2.5-3.7 4.3-10.4 6.9-14.7 6.9h-1.6zm-2-8.9h.3l5.2-8.9c4.3-7.4-2.5-10.8-7.5-2.3l-3.4 5.8-5.4 9.4c-4.2 7.4 3.9 8.5 7.3 2.7l.1-.1c-.4-.7-.7-1.5-.7-2.4-.1-2.3 1.8-4.2 4.1-4.2z"/><path id="XMLID_16_" class="st3" d="M122.3 39.2c1 .4 2.2 1.5 2.7 2.5-5.9 6.9-12.7 13.2-18.6 13.2-3.6 0-5.8-1.9-6.2-4.7-3.4 2.8-7 4.7-9.9 4.7-5.8 0-7.9-4.9-4.9-10.1l10-17.3c3-5.2 8.4-8.2 12.2-8.2 4.7 0 7.7 4.2 7.5 7.2h4l-11.5 20.1c-1.6 2.8-.8 3.9.8 3.9 3.2 0 8.2-4.7 13.3-10.7l.6-.6zm-30.7 7.3c-1.6 2.8-.8 3.9.8 3.9 2.9 0 7.2-3.2 11.5-10l5.5-9.7c3.5-6.4-4.1-8.2-7.9-1.5l-9.9 17.3z"/><path id="XMLID_20_" class="st3" d="M155.9 39.2c1 .4 2.2 1.5 2.7 2.5-5.9 6.9-12.7 13.2-18.6 13.2-5.8 0-7.9-4.9-4.9-10.1l9.2-16.1c3.1-5.3-1.8-7.1-12.7 6.6l-10.9 19h-7.2l19.8-34.2h7.1l-2.7 4.7c3.6-3.7 6.8-5.3 9.9-5.3 4 0 6.9 3.9 3.8 9.3l-10.3 18c-1.6 2.8-.8 3.9.8 3.9 3.2 0 8.2-4.7 13.3-10.7l.7-.8z"/><path id="XMLID_22_" class="st3" d="M189.5 39.2c1 .4 2.2 1.5 2.7 2.5-5.9 6.9-12.7 13.2-18.6 13.2-5.8 0-7.9-4.9-4.9-10.1l9.2-16.1c3.1-5.3-1.8-7.1-12.7 6.6l-10.9 19h-7.2l19.8-34.2h7.1l-2.7 4.7c3.6-3.7 6.8-5.3 9.9-5.3 4 0 6.9 3.9 3.8 9.3l-10.3 18c-1.6 2.8-.8 3.9.8 3.9 3.2 0 8.2-4.7 13.3-10.7l.7-.8z"/><path id="XMLID_24_" class="st4" d="M261.8 39.2c1 .4 2.2 1.5 2.7 2.5-5.9 6.9-12.7 13.2-18.6 13.2-5.8 0-7.9-4.9-4.9-10.1l9.2-16.1c3.4-5.9-2.9-7.4-16.4 11.6l-8 14h-7.3l14.7-25.5c3.4-5.8-2.9-7.3-16.1 11.2L209 54.1h-7.2l19.8-34.2h7.1l-4.2 7.4c4.5-5.7 8.6-8.1 12.3-8.1 3.8 0 6.6 3.6 4.2 8.6 4.7-6 8.9-8.6 12.7-8.6 4 0 6.9 3.9 3.8 9.3l-10.3 18c-1.6 2.8-.8 3.9.8 3.9 3.2 0 8.2-4.7 13.3-10.7l.5-.5z"/><path id="XMLID_55_" class="st4" d="M267.5 46.9c2.2 0 4 1.8 4 4s-1.8 3.9-4 3.9-3.9-1.7-3.9-3.9 1.7-4 3.9-4z"/></g><g id="XMLID_4_"><path id="XMLID_57_" class="st4" d="M38.5 91.5c.4.2.8.1 1.1-.1-.4-.2-.5-.6-.4-.9.2-.5.6-.5 1-.4.4.2.6.6.5 1-.4.9-1.5 1.2-2.3.9h-.1l.2-.5z"/></g><g id="XMLID_11_"><path id="XMLID_204_" class="st5" d="M103.2 87.4c3.5-1 12.7-1.2 18.7-.9 5.6.3 8.8 2.1 16.3 2.4 4.4-.3 11.3-2.1 16.9-2.4 5.9-.3 14.9-.2 18.5.9 0-.5.1-.3.1-.3-3.5-1-12.6-1.7-18.6-1.4-5.6.3-12.5 2.1-16.9 2.4-7.5-.2-10.7-2.1-16.3-2.4-6-.3-15.2.3-18.6 1.4l-.1.3z"/><path id="XMLID_203_" class="st6" d="M107.3 98.1c-.4-2.6-1.6-9 4.8-9.5 6.5-.5 14.1.6 16.2 1.2 2.1.6 5.1 1.1 3.6 7.8-1.3 5.5-3.3 9.2-9.5 9.4-6.2.3-13.5 1-15.1-8.9z"/><path id="XMLID_200_" class="st6" d="M115.5 89.8c-1.2 0-2.3 0-3.3.1-1.4.1-2.5.5-3.1 1.3-1.3 1.7-.8 4.7-.6 6.4h.6s-.6-4.7.7-5.8c1.6-1.4 5.7-1.5 5.7-1.5v-.5z"/><path id="XMLID_180_" class="st6" d="M146.6 89.9c5-1.3 14.7-1.7 17.8-1.2 3.1.5 5.8-.1 5.1 9.2-.6 8.2-6.9 9-10.9 9.2-3.9.2-13.5.4-14.7-8.3-1-7.5 1.7-8.7 2.7-8.9z"/><g id="XMLID_35_"><path id="XMLID_37_" class="st7" d="M131.3 91.3c-.5-.6-1.2-.9-1.9-1.1-.7-.2-1.5-.4-2.2-.6-1.5-.3-3-.5-4.5-.6-1.5-.1-3.1-.2-4.6-.3-1.5-.1-3.1-.1-4.6 0-.8 0-1.5 0-2.3.2-.7.1-1.5.4-2.1.8-.6.4-1.1 1-1.5 1.7-.3.7-.5 1.4-.6 2.2-.2 1.5 0 3.1.3 4.6.2 1.5.7 3 1.4 4.4.7 1.3 1.8 2.5 3.1 3.2 1.3.7 2.8 1.1 4.4 1.2 1.5.1 3 .1 4.6 0 .8 0 1.5-.1 2.3-.1.8-.1 1.5-.2 2.2-.4.7-.2 1.4-.5 2.1-.9.6-.4 1.2-.9 1.7-1.5 1-1.2 1.6-2.6 2.1-4 .2-.7.4-1.5.6-2.2.2-.7.3-1.5.4-2.2.1-.8.1-1.5 0-2.3-.1-.8-.4-1.5-.9-2.1z"/><path id="XMLID_41_" class="st7" d="M169 91c-.1-.4-.3-.7-.6-1-.2-.3-.5-.5-.9-.7-.7-.3-1.5-.4-2.2-.5-.4 0-.8-.1-1.2-.1-.4 0-.8-.1-1.2-.1-.8 0-1.6-.1-2.3-.1-1.6 0-3.1 0-4.7.1-3.1.2-6.3.4-9.3 1.2-.8.2-1.4.7-1.8 1.4-.4.7-.7 1.4-.8 2.2-.3 1.5-.2 3.1 0 4.7.2 1.5.6 3.1 1.4 4.4.8 1.3 2.1 2.3 3.4 3 1.4.7 2.9 1.1 4.5 1.3 1.5.2 3.1.2 4.7.2 1.6-.1 3.1-.2 4.6-.5 1.5-.4 3-1 4.1-2.1 1.2-1.1 1.9-2.5 2.3-4 .4-1.5.5-3.1.5-4.7 0-.8 0-1.6-.1-2.3 0-.9-.1-1.6-.4-2.4z"/></g><path id="XMLID_189_" class="st4" d="M173.5 87.1c-3.5-1-12.6-1.7-18.6-1.4-5.6.3-12.5 2.1-16.9 2.4-7.5-.2-10.7-2.1-16.3-2.4-6-.3-15.2.3-18.6 1.4 0 0-.2 5.5.2 10.9 0 0 1.7.7 2.4 2.7s.9 8.4 10.8 8.6c10.4.2 15.9-.4 17.6-11.4 0 0 .7-4.3 3.9-3.9 2.9 0 3.5 4 3.5 4 1.7 11.6 7.8 11.7 18.2 11.4 9.4-.3 10.6-6.5 11.3-8.5.7-2 2.2-2.8 2.2-2.8.5-5.5.3-11 .3-11zm-41.1 8.5c-.1.8-.2 1.5-.4 2.3-.2.7-.4 1.5-.6 2.2-.5 1.5-1.1 2.9-2.1 4.1-.5.6-1.1 1.1-1.8 1.5-.7.4-1.4.7-2.1.9-.7.2-1.5.3-2.3.4-.8.1-1.5.1-2.3.1-1.5.1-3.1.1-4.6-.1-1.5-.2-3.1-.5-4.4-1.3-1.3-.8-2.4-2-3.1-3.3-.7-1.4-1.1-2.9-1.3-4.4-.3-1.5-.5-3-.3-4.6.1-.8.2-1.5.6-2.2.3-.7.8-1.3 1.5-1.8.6-.5 1.4-.7 2.1-.9.4-.1.8-.1 1.2-.1.4 0 .8 0 1.1-.1 1.5-.1 3.1 0 4.6 0 3.1.2 6.1.5 9.1 1 .8.1 1.5.4 2.2.6.7.2 1.5.6 2 1.2s.8 1.3.9 2.1c.1.9 0 1.7 0 2.4zm37.3.1c-.1 1.6-.1 3.2-.5 4.7s-1.2 3-2.3 4.1c-1.2 1.1-2.6 1.8-4.2 2.2-1.5.4-3.1.5-4.7.6-1.6.1-3.2 0-4.7-.2-1.6-.2-3.1-.6-4.6-1.3-1.4-.7-2.7-1.8-3.5-3.1-.9-1.4-1.3-2.9-1.4-4.5-.2-1.6-.2-3.2.1-4.7.2-.8.4-1.5.9-2.2.4-.7 1.1-1.2 1.9-1.4 1.5-.4 3.1-.7 4.6-.9 1.6-.2 3.1-.4 4.7-.5 1.6-.1 3.1-.2 4.7-.2.8 0 1.6 0 2.4.1.4 0 .8.1 1.2.1.4.1.8.1 1.2.2.8.1 1.6.2 2.3.6.4.2.7.4.9.8.3.3.4.7.6 1 .3.7.4 1.5.5 2.3-.1.7-.1 1.5-.1 2.3z"/><path id="XMLID_90_" class="st8" d="M146.6 89.8c1.5-.4 3.1-.7 4.6-.9 1.6-.2 3.1-.4 4.7-.5 1.6-.1 3.1-.2 4.7-.2.8 0 1.6 0 2.4.1.4 0 .8.1 1.2.1.4.1.8.1 1.2.2.8.1 1.6.2 2.3.6.4.2.7.4.9.8.3.3.4.7.6 1 .3.7.4 1.5.5 2.3.1.8.1 1.6.1 2.4-.1 1.6-.1 3.2-.5 4.7s-1.2 3-2.3 4.1c-1.2 1.1-2.6 1.8-4.2 2.2-1.5.4-3.1.5-4.7.6-1.6.1-3.2 0-4.7-.2-1.6-.2-3.1-.6-4.6-1.3-1.4-.7-2.7-1.8-3.5-3.1-.9-1.4-1.3-2.9-1.4-4.5-.2-1.6-.2-3.2.1-4.7.2-.8.4-1.5.9-2.2.2-.7.9-1.3 1.7-1.5zm0 .1c-.8.2-1.4.7-1.8 1.4-.4.7-.7 1.4-.8 2.2-.3 1.5-.2 3.1 0 4.7.2 1.5.6 3.1 1.4 4.4.8 1.3 2.1 2.3 3.4 3 1.4.7 2.9 1.1 4.5 1.3 1.5.2 3.1.2 4.7.2 1.6-.1 3.1-.2 4.6-.5 1.5-.4 3-1 4.1-2.1 1.2-1.1 1.9-2.5 2.3-4 .4-1.5.5-3.1.5-4.7 0-.8 0-1.6-.1-2.3-.1-.8-.2-1.6-.5-2.3-.1-.4-.3-.7-.6-1-.2-.3-.5-.5-.9-.7-.7-.3-1.5-.4-2.2-.5-.4 0-.8-.1-1.2-.1-.4 0-.8-.1-1.2-.1-.8 0-1.6-.1-2.3-.1-1.6 0-3.1 0-4.7.1-3 0-6.2.3-9.2 1.1z"/><path id="XMLID_34_" class="st8" d="M107.3 98.1c-.3-1.5-.5-3-.3-4.6.1-.8.2-1.5.6-2.2.3-.7.8-1.3 1.5-1.8.6-.5 1.4-.7 2.1-.9.4-.1.8-.1 1.2-.1.4 0 .8 0 1.1-.1 1.5-.1 3.1 0 4.6 0 3.1.2 6.1.5 9.1 1 .8.1 1.5.4 2.2.6.7.2 1.5.6 2 1.2s.8 1.3.9 2.1c.1.8.1 1.5 0 2.3-.1.8-.2 1.5-.4 2.3-.2.7-.4 1.5-.6 2.2-.5 1.5-1.1 2.9-2.1 4.1-.5.6-1.1 1.1-1.8 1.5-.7.4-1.4.7-2.1.9-.7.2-1.5.3-2.3.4-.8.1-1.5.1-2.3.1-1.5.1-3.1.1-4.6-.1-1.5-.2-3.1-.5-4.4-1.3-1.3-.8-2.4-2-3.1-3.3-.7-1.3-1.1-2.8-1.3-4.3zm0 0c.2 1.5.7 3 1.4 4.4.7 1.3 1.8 2.5 3.1 3.2 1.3.7 2.8 1.1 4.4 1.2 1.5.1 3 .1 4.6 0 .8 0 1.5-.1 2.3-.1.8-.1 1.5-.2 2.2-.4.7-.2 1.4-.5 2.1-.9.6-.4 1.2-.9 1.7-1.5 1-1.2 1.6-2.6 2.1-4 .2-.7.4-1.5.6-2.2.2-.7.3-1.5.4-2.2.1-.8.1-1.5 0-2.3-.1-.7-.4-1.5-.9-2-.5-.6-1.2-.9-1.9-1.1-.7-.2-1.5-.4-2.2-.6-1.5-.3-3-.5-4.5-.6-1.5-.1-3.1-.2-4.6-.3-1.5-.1-3.1-.1-4.6 0-.8 0-1.5 0-2.3.2-.7.1-1.5.4-2.1.8-.6.4-1.1 1-1.5 1.7-.3.7-.5 1.4-.6 2.2-.1 1.5.1 3 .3 4.5z"/><path id="XMLID_85_" class="st9" d="M161.6 89.8c1.2 0 2.3 0 3.3.1 1.4.1 2.5.5 3.1 1.3 1.3 1.7.8 4.7.6 6.4h-.3s.3-4.8-1-6c-1.6-1.4-5.7-1.4-5.7-1.4v-.4z"/><path id="XMLID_78_" class="st8" d="M103.8 93.8l-.1-1.2v-1.2c0-.8-.4-2.5.1-3.2.5-.7 1.7-.8 2.5-.8.7-.1 1-.1 1.4-.1.4 0 .8-.1 1.2 0-.8.1-1.6.2-2.4.5-.8.3-1.4.8-1.9 1.5s-.6 1.5-.7 2.3c-.2.5-.1 1.3-.1 2.2z"/><path id="XMLID_32_" class="st8" d="M172.2 93.8l.1-1.2v-1.2c0-.8.4-2.5-.1-3.2-.5-.7-1.7-.8-2.5-.8-.7-.1-1-.1-1.4-.1-.4 0-.8-.1-1.2 0 .8.1 1.6.2 2.4.5.8.3 1.4.8 1.9 1.5.4.7.6 1.5.7 2.3.1.5 0 1.4.1 2.2z"/><path id="XMLID_28_" class="st8" d="M162.1 108c1.1-.3 2.2-.8 3.2-1.3.5-.3 1-.5 1.5-.9s.9-.8 1.2-1.3l.9-1.5c.3-.5.5-1 .7-1.6.4-1.1.7-2.2 1-3.3h.1c.1 1.2-.1 2.4-.5 3.5-.2.6-.5 1.1-.8 1.6-.3.5-.7 1-1.1 1.4-.4.4-.9.8-1.3 1.2-.4.4-.9.8-1.4 1.1-.5.3-1.1.6-1.6.7-.7.4-1.3.5-1.9.4z"/><path id="XMLID_12_" class="st8" d="M114.8 108.2c-1.1-.3-2.2-.8-3.2-1.3-.5-.2-1-.5-1.5-.8-.5-.3-.9-.8-1.2-1.2-.3-.5-.6-.9-.9-1.4-.3-.5-.5-1-.7-1.5-.4-1-.7-2.1-1-3.2h-.1c-.1 1.1.1 2.3.5 3.4.2.5.5 1.1.8 1.6.3.5.7.9 1.1 1.4.4.4.9.8 1.3 1.2.4.4.9.8 1.4 1.1.5.3 1.1.6 1.6.7.7-.1 1.3.1 1.9 0z"/></g></g></svg>